<svg width="424" height="195" viewBox="0 0 424 195" fill="none" xmlns="http://www.w3.org/2000/svg">
<g clip-path="url(#clip0_7689_1532)">
<path d="M173.318 194.751H169.188V0H173.318V194.751Z" fill="white"/>
<path d="M125.215 96.2712C125.19 113.066 118.571 129.164 106.813 141.023C95.0551 152.882 79.1213 159.53 62.5171 159.506C45.9129 159.481 29.9983 152.786 18.2745 140.892C6.55064 128.999 -0.022168 112.882 0.00201965 96.0867C0.00201965 61.2738 28.0871 33.0237 62.6387 33.0237C70.8584 33.0017 79.0014 34.6222 86.6001 37.7923C94.1989 40.9624 101.104 45.6196 106.918 51.4964C112.733 57.3733 117.342 64.354 120.482 72.0377C123.622 79.7215 125.23 87.957 125.215 96.2712ZM97.4682 125.048L62.8124 49.7119C61.1057 52.1016 28.3694 123.691 28.3173 125.048H38.5012C46.4834 107.679 54.4452 90.3483 62.3868 73.0553H62.8472C70.8351 90.4156 78.8129 107.753 86.7805 125.066L97.4682 125.048Z" fill="white"/>
<path d="M344.112 43.8496C344.725 43.8144 345.259 43.7617 345.793 43.7617C351.117 43.7617 356.442 43.7266 361.761 43.7617C369.322 43.8232 375.724 48.708 377.708 55.8683C379.676 62.9583 376.866 70.1669 370.525 74.3181C370.178 74.5465 369.844 74.8013 369.283 75.1966C373.444 81.3026 377.565 87.3515 381.878 93.6464H370.955L359.512 76.7692H352.781C352.681 82.3832 352.781 87.9577 352.715 93.6552H344.247C343.795 92.3944 343.639 46.5248 344.112 43.8496ZM352.841 67.5707C353.449 67.6366 353.975 67.7332 354.5 67.7376C356.919 67.7376 359.334 67.7859 361.753 67.7376C366.096 67.6366 369.27 64.4211 369.227 60.2171C369.183 56.0132 366.057 52.9866 361.74 52.9075C359.325 52.8636 356.906 52.9075 354.487 52.9075C353.966 52.9075 353.441 53.0086 352.841 53.0657V67.5707Z" fill="white"/>
<path d="M213.447 79.7639H223.413C223.574 80.2032 223.726 80.6732 223.891 81.1125C224.938 83.8756 227.053 85.2198 229.841 85.5053C231.148 85.6019 232.454 85.3135 233.603 84.675C234.751 84.0366 235.692 83.0754 236.312 81.9076C237.688 79.2104 236.412 75.7577 233.332 74.5013C231.795 73.8688 230.058 73.7282 228.416 73.346C226.419 72.8848 224.352 72.608 222.445 71.8964C214.419 68.9049 210.85 60.4092 214.194 52.4187C216.843 46.1151 221.972 43.475 228.39 43.0093C236.073 42.4515 242.722 46.7564 245.184 53.8069C245.618 55.094 245.753 56.4953 246.053 58.0503H235.947C235.838 57.756 235.695 57.4309 235.595 57.0927C234.292 52.7306 228.803 50.8593 225.09 53.5125C221.494 56.0867 221.776 61.156 225.737 63.1152C227.04 63.7697 228.616 63.9454 230.08 64.3013C232.594 64.9163 235.222 65.2281 237.619 66.1506C243.408 68.3778 246.131 72.9551 246.305 79.083C246.517 86.0896 242.5 91.686 235.83 93.9087C228.482 96.3555 220.512 94.0054 216.287 88.0839C214.493 85.6848 213.498 82.7715 213.447 79.7639Z" fill="white"/>
<path d="M337.458 93.7419H328.073L313.611 63.963H313.155C308.335 73.8703 303.515 83.7848 298.698 93.7067H289.348C297.351 77.1283 305.251 60.831 313.168 44.5469L313.602 44.5117L337.458 93.7419Z" fill="white"/>
<path d="M275.024 93.69H266.082V52.9731H252.871V44.1875H288.235V52.8633H275.024V93.69Z" fill="white"/>
<path d="M410.148 93.6549H401.206V52.9204H388.043V44.2227H423.363V52.8765H410.148V93.6549Z" fill="white"/>
<path d="M287.629 115.117C296.805 115.073 304.327 122.778 304.379 132.271C304.436 142.12 297.127 149.943 287.829 149.996C278.531 150.049 270.957 142.265 270.939 132.566C270.922 122.963 278.387 115.157 287.629 115.117ZM287.629 144.716C294.239 144.738 299.737 139.317 299.789 132.715C299.798 131.11 299.495 129.519 298.896 128.033C298.297 126.547 297.415 125.194 296.299 124.053C295.184 122.912 293.857 122.004 292.395 121.381C290.933 120.758 289.363 120.433 287.777 120.424C286.19 120.415 284.617 120.722 283.148 121.327C281.679 121.933 280.342 122.825 279.213 123.954C278.085 125.082 277.187 126.424 276.572 127.903C275.956 129.382 275.635 130.97 275.625 132.574C275.631 135.79 276.895 138.872 279.141 141.147C281.387 143.422 284.433 144.706 287.612 144.716H287.629Z" fill="white"/>
<path d="M310.836 148.971V116.091C311.457 116.034 312.03 115.942 312.603 115.938C315.383 115.938 318.167 115.938 320.946 115.938C328.494 115.99 332.832 123.559 329.128 130.197C328.802 130.789 328.445 131.364 328.06 131.919C328.647 132.231 329.206 132.597 329.727 133.012C332.567 135.696 333.479 139.013 332.237 142.676C330.961 146.459 328.212 148.875 324.221 149.134C320.004 149.406 315.761 149.204 311.531 149.2C311.29 149.155 311.057 149.078 310.836 148.971ZM315.413 134.914V144.579C318.51 144.579 321.459 144.741 324.381 144.526C326.553 144.363 328.199 142.114 328.29 139.891C328.364 137.585 326.787 135.169 324.559 134.967C321.558 134.712 318.562 134.928 315.413 134.928V134.914ZM315.357 130.267C317.437 130.267 319.296 130.302 321.155 130.267C322.347 130.283 323.503 129.85 324.397 129.052C325.291 128.254 325.86 127.148 325.992 125.949C326.199 124.788 325.963 123.592 325.331 122.601C324.699 121.61 323.718 120.899 322.588 120.611C320.238 119.953 317.837 120.343 315.357 120.37V130.267Z" fill="white"/>
<path d="M240.298 118.698L237.34 121.927C233.749 119.801 230.044 119.142 226.149 120.609C223.456 121.613 221.197 123.541 219.765 126.056C218.261 128.636 217.698 131.668 218.174 134.624C218.65 137.581 220.135 140.275 222.371 142.239C226.431 145.863 232.589 146.399 236.476 143.43V136.779H230.787V132.738H241.088V149.87H237.301L236.498 149.162C224.972 151.627 216.994 147.779 213.963 136.054C212.065 128.709 215.843 121.053 222.088 117.376C228.099 113.835 236.181 114.854 240.298 118.698Z" fill="white"/>
<path d="M366.081 149.18H361.573L357.886 141.22H343.781L340.029 149.211H335.994C335.994 147.827 349.37 118.369 350.947 116.238L366.081 149.18ZM345.787 136.713H355.832L351.029 126.329L350.595 126.359L345.787 136.713Z" fill="white"/>
<path d="M252.539 144.909H267.804V149.17H248.4V116.07H252.539V144.909Z" fill="white"/>
<path d="M375.19 144.886H390.512V149.147H371.064V116.082H375.199L375.19 144.886Z" fill="white"/>
</g>
<defs>
<clipPath id="clip0_7689_1532">
<rect width="423.361" height="194.746" fill="white"/>
</clipPath>
</defs>
</svg>
